<?xml version="1.0" standalone="no"?>
<!DOCTYPE svg PUBLIC "-//W3C//DTD SVG 20010904//EN"
 "http://www.w3.org/TR/2001/REC-SVG-20010904/DTD/svg10.dtd">
<svg version="1.0" xmlns="http://www.w3.org/2000/svg"
 width="260.000000pt" height="260.000000pt" viewBox="0 0 260.000000 260.000000"
 preserveAspectRatio="xMidYMid meet">
<metadata>
Created by potrace 1.11, written by Peter Selinger 2001-2013
</metadata>
<g transform="translate(0.000000,260.000000) scale(0.100000,-0.100000)"
fill="#000000" stroke="none">
<path d="M1139 2596 c-3 -3 -72 -6 -153 -7 -80 0 -145 -3 -142 -7 2 -4 -9 -8
-24 -8 -40 -2 -82 -35 -109 -87 -18 -34 -23 -64 -26 -143 -1 -54 -4 -99 -5
-99 -6 0 -7 -91 -1 -100 4 -5 5 -26 4 -45 -9 -93 -10 -217 -1 -233 6 -11 6
-23 0 -30 -5 -7 -8 -55 -6 -107 2 -52 6 -423 9 -825 4 -495 9 -741 17 -764 11
-35 79 -110 101 -112 7 0 35 -3 62 -5 50 -5 65 -5 88 -2 6 0 23 -2 36 -6 18
-6 22 -5 16 4 -5 9 -4 11 3 6 17 -10 122 -13 122 -4 0 5 8 5 17 -1 10 -5 26
-5 40 0 13 5 23 5 23 1 0 -8 88 -7 96 1 4 3 18 1 32 -4 16 -6 27 -6 31 0 4 6
12 6 20 1 8 -4 25 -4 38 1 12 5 23 5 23 1 0 -9 212 -8 228 2 7 4 12 4 12 -1 0
-9 87 -9 96 0 3 3 12 3 20 0 25 -9 95 40 122 87 l27 45 1 765 c1 421 5 775 10
787 11 28 11 274 0 292 -5 7 -9 113 -10 235 -1 165 -5 227 -15 246 -31 56 -78
93 -137 105 -40 8 -658 18 -665 11z"/>
</g>
</svg>
